<svg xmlns="http://www.w3.org/2000/svg" viewBox="0 0 419 419"><defs><style>.cls-1{fill:#0f9e74;}</style></defs><title>ededed_2</title><g id="圖層_2" data-name="圖層 2"><g id="圖層_1-2" data-name="圖層 1"><path class="cls-1" d="M380.38,88.25a212.61,212.61,0,0,0-99.87-76C198.71-17.62,103.38,8.53,48.19,75.8A209.79,209.79,0,0,0,30,317.55c21.67,35.92,54.3,65.38,92.58,82.65A212.34,212.34,0,0,0,252,414.77c83.87-17,151.32-87.47,164.29-172.12A224.57,224.57,0,0,0,419,209.48C418.85,166.31,405.58,123.42,380.38,88.25Zm-16.8,231.14a189,189,0,0,1-88.48,67.74A189.23,189.23,0,0,1,63.4,329.8c-50.7-61-56.72-150.43-15.89-218.12C88.22,44.21,169.24,8.1,246.64,23.81c77.2,15.67,137.42,78.86,149.86,156.56a187.88,187.88,0,0,1,2.16,29.11A191.27,191.27,0,0,1,363.58,319.39Z"/><path class="cls-1" d="M269.94,43.18C200.76,17.3,120.85,39.68,74.41,96.87c-46.7,57.52-52.79,140.67-14.69,204.3,37.72,63,112.45,96.65,184.56,82,71.39-14.53,127.43-74.7,138.18-146.57a187.64,187.64,0,0,0,2.05-27.1C384.23,136.41,338.72,68.91,269.94,43.18Zm109.49,166.3c-.28,71.16-44.8,137.3-112.08,161.86-67,24.46-143.29,3-188.51-51.82C32.86,263.75,27,182.31,64.11,120.36c36.63-61.16,109.43-94,179.47-79.5,69.1,14.32,122.8,72.07,133.77,141.52A179.52,179.52,0,0,1,379.43,209.48Z"/><path class="cls-1" d="M303.55,129.28A71.29,71.29,0,0,0,281,114a66.16,66.16,0,0,0-26.41-5.52h-42a19.39,19.39,0,0,0-15,6.63,21.53,21.53,0,0,0-6,14.85v19.77l-77.79,0c-25.75,0-25.8,40.94,0,40.95l77.79,0v37.54l-77.82,0c-25.75,0-25.8,40.94,0,40.95l77.82,0v19.73a21.33,21.33,0,0,0,21,21.49h42a64.31,64.31,0,0,0,27-5.85A72.21,72.21,0,0,0,304,288.69a78.33,78.33,0,0,0,15.29-22.91A66.57,66.57,0,0,0,325,238.61V180.15A67.39,67.39,0,0,0,319.15,152,77.31,77.31,0,0,0,303.55,129.28ZM283,238.61a29.05,29.05,0,0,1-2.16,11.22,28.75,28.75,0,0,1-6,9.16,27.43,27.43,0,0,1-9.11,6.16,28.26,28.26,0,0,1-11.12,2.21H233.29v-116H254.6a28.44,28.44,0,0,1,11.12,2.21,27.73,27.73,0,0,1,9.11,6.16A28.84,28.84,0,0,1,283,180.15Z"/></g></g></svg>