<svg xmlns="http://www.w3.org/2000/svg" viewBox="0 0 420.5 429.63"><defs><style>.cls-1{fill:none;}.cls-2{fill:#0f9e74;}</style></defs><title>資產 4</title><g id="圖層_2" data-name="圖層 2"><g id="圖層_1-2" data-name="圖層 1"><path class="cls-1" d="M244.64,41.73c-71-15.12-144,19.47-180.4,81.65C27.1,186.82,32.68,270.1,78.78,327.55c21.76,27.11,51.43,47.56,84.84,57.36a166.8,166.8,0,0,0,105.15-4C337,355.25,380.61,286.88,380.88,214.87a186.68,186.68,0,0,0-2-27.44C368.15,117,315,56.71,244.64,41.73ZM325.77,244a66.65,66.65,0,0,1-5.72,27.18,78.26,78.26,0,0,1-15.28,22.9,72.37,72.37,0,0,1-22.4,15.8,64.31,64.31,0,0,1-27,5.85h-42a21.33,21.33,0,0,1-21-21.49V274.5l-77.82,0c-25.79,0-25.75-41,0-41l77.82,0V196l-77.79,0c-25.79,0-25.75-41,0-40.95l77.79,0V135.29a21.6,21.6,0,0,1,6-14.85,19.41,19.41,0,0,1,15-6.63h42a66,66,0,0,1,26.41,5.53,71.09,71.09,0,0,1,22.54,15.32,77.12,77.12,0,0,1,15.6,22.75,67.39,67.39,0,0,1,5.87,28.12Z"/><path class="cls-1" d="M275.58,165.15a27.73,27.73,0,0,0-9.11-6.16,28.44,28.44,0,0,0-11.12-2.21H234v116h21.31a28.26,28.26,0,0,0,11.12-2.21,27.43,27.43,0,0,0,9.11-6.16,28.75,28.75,0,0,0,6-9.16A29.05,29.05,0,0,0,283.76,244V185.53a28.84,28.84,0,0,0-8.18-20.38Z"/><path class="cls-1" d="M347.32,80.07a190.33,190.33,0,0,0-99.1-56A185.92,185.92,0,0,0,132.07,37.37,194,194,0,0,0,48,113.59C6.7,182.88,12.08,274.74,62.88,337.83c24.48,30.4,57.6,53.29,95.16,64.23a188.13,188.13,0,0,0,117.64-4.36c35.72-13.23,67.3-38.14,89-69.38a199.63,199.63,0,0,0,35.56-113.45,197.12,197.12,0,0,0-2.09-29.43C392.12,146.15,374.6,109.08,347.32,80.07ZM383.84,243C373,315.78,317.45,378.28,244.68,393.16c-72.92,14.91-147.46-20.45-184.81-84.24C21.72,243.75,27.57,158.86,74.39,99.64a176,176,0,0,1,87.25-59.5,171.32,171.32,0,0,1,109.09,4c70,26.67,114.93,96.52,115.21,170.71A195.77,195.77,0,0,1,383.84,243Z"/><path class="cls-2" d="M381.42,90.12a214,214,0,0,0-99.74-77.37,206.77,206.77,0,0,0-129-4.59A210,210,0,0,0,48.57,77.6,218.66,218.66,0,0,0,30.49,326.36c21.6,36.29,54.13,66.33,92.56,84a209.08,209.08,0,0,0,129.24,15c85.74-17.49,152.93-91,165.61-177.12a233.91,233.91,0,0,0,2.6-33.44C420.36,170.54,407,126.43,381.42,90.12ZM364.7,328.32c-21.72,31.24-53.3,56.15-89,69.38A188.13,188.13,0,0,1,158,402.06c-37.56-10.94-70.68-33.83-95.16-64.23C12.08,274.74,6.7,182.88,48,113.59a194,194,0,0,1,84.1-76.22A185.92,185.92,0,0,1,248.22,24.1a190.33,190.33,0,0,1,99.1,56c27.28,29,44.8,66.08,50.85,105.37a197.12,197.12,0,0,1,2.09,29.43A199.63,199.63,0,0,1,364.7,328.32Z"/><path class="cls-2" d="M270.73,44.16a171.32,171.32,0,0,0-109.09-4,176,176,0,0,0-87.25,59.5C27.57,158.86,21.72,243.75,59.87,308.92c37.35,63.79,111.89,99.15,184.81,84.24C317.45,378.28,373,315.78,383.84,243a195.77,195.77,0,0,0,2.1-28.1C385.66,140.68,340.75,70.83,270.73,44.16ZM380.88,214.87c-.27,72-43.9,140.38-112.11,166.07a166.8,166.8,0,0,1-105.15,4c-33.41-9.8-63.08-30.25-84.84-57.36C32.68,270.1,27.1,186.82,64.24,123.38c36.4-62.18,109.35-96.77,180.4-81.65C315,56.71,368.15,117,378.85,187.43A186.68,186.68,0,0,1,380.88,214.87Z"/><path class="cls-2" d="M304.3,134.66a71.09,71.09,0,0,0-22.54-15.32,66,66,0,0,0-26.41-5.53h-42a19.41,19.41,0,0,0-15,6.63,21.6,21.6,0,0,0-6,14.85v19.77l-77.79,0c-25.75,0-25.79,40.94,0,40.95l77.79,0v37.54l-77.82,0c-25.75,0-25.79,40.94,0,41l77.82,0v19.73a21.33,21.33,0,0,0,21,21.49h42a64.31,64.31,0,0,0,27-5.85,72.37,72.37,0,0,0,22.4-15.8,78.26,78.26,0,0,0,15.28-22.9A66.65,66.65,0,0,0,325.77,244V185.53a67.39,67.39,0,0,0-5.87-28.12A77.12,77.12,0,0,0,304.3,134.66ZM283.76,244a29.05,29.05,0,0,1-2.16,11.22,28.75,28.75,0,0,1-6,9.16,27.43,27.43,0,0,1-9.11,6.16,28.26,28.26,0,0,1-11.12,2.21H234v-116h21.31A28.44,28.44,0,0,1,266.47,159a27.73,27.73,0,0,1,9.11,6.16,28.84,28.84,0,0,1,8.18,20.38Z"/></g></g></svg>